<?xml version="1.0" encoding="utf-8"?>
<!-- Generator: Adobe Illustrator 16.0.0, SVG Export Plug-In . SVG Version: 6.00 Build 0)  -->
<!DOCTYPE svg PUBLIC "-//W3C//DTD SVG 1.1//EN" "http://www.w3.org/Graphics/SVG/1.1/DTD/svg11.dtd">
<svg version="1.1" id="Layer_1" xmlns="http://www.w3.org/2000/svg" xmlns:xlink="http://www.w3.org/1999/xlink" x="0px" y="0px"
	 width="448px" height="448px" viewBox="0 0 448 448" enable-background="new 0 0 448 448" xml:space="preserve">
<path fill="#7F7F7F" d="M408,184H272c-4.418,0-8-3.582-8-8V40c0-22.09-17.91-40-40-40s-40,17.91-40,40v136c0,4.418-3.582,8-8,8H40
	c-22.09,0-40,17.91-40,40s17.91,40,40,40h136c4.418,0,8,3.582,8,8v136c0,22.09,17.91,40,40,40s40-17.91,40-40V272
	c0-4.418,3.582-8,8-8h136c22.09,0,40-17.91,40-40S430.09,184,408,184z"/>
</svg>
