<?xml version="1.0" encoding="utf-8"?>
<!-- Generator: Adobe Illustrator 16.0.0, SVG Export Plug-In . SVG Version: 6.00 Build 0)  -->
<!DOCTYPE svg PUBLIC "-//W3C//DTD SVG 1.1//EN" "http://www.w3.org/Graphics/SVG/1.1/DTD/svg11.dtd">
<svg version="1.1" id="Layer_5" xmlns="http://www.w3.org/2000/svg" xmlns:xlink="http://www.w3.org/1999/xlink" x="0px" y="0px"
	 width="512px" height="512px" viewBox="0 0 512 512" enable-background="new 0 0 512 512" xml:space="preserve">
<path fill="#FFFFFF" d="M455.32,190.4C470.2,180.32,480,163.288,480,144c0-30.88-25.128-56-56-56V8H8v336h116.448
	c5.552,9.52,15.76,16,27.552,16v84c0,15.44,12.56,28,28,28c7.84,0,14.912-3.256,20-8.464c5.088,5.208,12.16,8.464,20,8.464
	c15.44,0,28-12.56,28-28v-72.448c4.728,2.753,10.145,4.448,16,4.448v100c0,15.44,12.561,28,28,28c7.84,0,14.912-3.256,20-8.464
	c5.088,5.208,12.16,8.464,20,8.464c15.44,0,28-12.56,28-28V376c5.856,0,11.272-1.695,16-4.448V444c0,15.44,12.56,28,28,28
	c7.84,0,14.912-3.256,20-8.464c5.088,5.208,12.16,8.464,20,8.464c15.44,0,28-12.56,28-28v-84c17.648,0,32-14.352,32-32v-64
	C504,231,483.904,202.608,455.32,190.4z M464,144c0,22.056-17.944,40-40,40s-40-17.944-40-40s17.944-40,40-40S464,121.944,464,144z
	 M408,24v48H24V24H408z M24,328V88h176h208v2.36c-23.096,6.904-40,28.328-40,53.64c0,19.312,9.832,36.376,24.744,46.44
	c-16.968,7.24-31.185,20.224-39.824,36.944c-3.088-1.848-6.264-3.56-9.6-4.984C358.2,212.32,368,195.288,368,176
	c0-30.88-25.128-56-56-56s-56,25.12-56,56c0,19.288,9.8,36.32,24.68,46.4c-3.336,1.424-6.512,3.136-9.6,4.984
	c-8.633-16.712-22.856-29.704-39.824-36.944C246.168,180.376,256,163.312,256,144c0-30.88-25.128-56-56-56s-56,25.12-56,56
	c0,19.288,9.8,36.32,24.68,46.4C140.096,202.608,120,231,120,264v64H24z M272,176c0-22.056,17.943-40,40-40
	c22.056,0,40,17.944,40,40s-17.944,40-40,40C289.943,216,272,198.056,272,176z M160,144c0-22.056,17.944-40,40-40s40,17.944,40,40
	s-17.944,40-40,40S160,166.056,160,144z M232,444c0,6.616-5.384,12-12,12s-12-5.384-12-12V312h-16v132c0,6.616-5.384,12-12,12
	s-12-5.384-12-12V256h-16v88c-8.824,0-16-7.176-16-16v-64c0-35.288,28.712-64,64-64c24.992,0,47.544,14.816,57.928,37.216
	C242.032,251.84,232,272.744,232,296v8v40V444z M360,360v-72h-16v188c0,6.616-5.384,12-12,12s-12-5.384-12-12V344h-16v132
	c0,6.616-5.384,12-12,12s-12-5.384-12-12V288h-16v72c-8.824,0-16-7.176-16-16v-40v-8c0-35.288,28.712-64,64-64s64,28.712,64,64v8v40
	C376,352.824,368.824,360,360,360z M488,328c0,8.824-7.176,16-16,16v-88h-16v188c0,6.616-5.384,12-12,12s-12-5.384-12-12V312h-16
	v132c0,6.616-5.384,12-12,12s-12-5.384-12-12V344v-40v-8c0-23.256-10.032-44.16-25.928-58.784C376.456,214.816,399.008,200,424,200
	c35.288,0,64,28.712,64,64V328z"/>
</svg>
