<?xml version="1.0" encoding="utf-8"?>
<!-- Generator: Adobe Illustrator 16.0.0, SVG Export Plug-In . SVG Version: 6.00 Build 0)  -->
<!DOCTYPE svg PUBLIC "-//W3C//DTD SVG 1.1//EN" "http://www.w3.org/Graphics/SVG/1.1/DTD/svg11.dtd">
<svg version="1.1" id="Capa_1" xmlns="http://www.w3.org/2000/svg" xmlns:xlink="http://www.w3.org/1999/xlink" x="0px" y="0px"
	 width="512px" height="512px" viewBox="0 0 512 512" enable-background="new 0 0 512 512" xml:space="preserve">
<path fill="#FFFFFF" d="M46.443,0v512h419.113V0H46.443z M435.557,482H76.443V30h89.89v70.333h179.334V30h89.89V482z M315.667,30
	v40.333H196.333V30H315.667z"/>
<path fill="#FFFFFF" d="M194.832,155.667h183.835v30H194.832V155.667z"/>
<path fill="#FFFFFF" d="M133.333,155.667h31.499v30h-31.499V155.667z"/>
<path fill="#FFFFFF" d="M194.832,219.667h183.835v30H194.832V219.667z"/>
<path fill="#FFFFFF" d="M133.333,219.667h31.499v30h-31.499V219.667z"/>
<path fill="#FFFFFF" d="M133.333,283.667h31.499v30h-31.499V283.667z"/>
<path fill="#FFFFFF" d="M194.832,283.667h183.835v30H194.832V283.667z"/>
<path fill="#FFFFFF" d="M133.333,379.667h80v30h-80V379.667z"/>
<path fill="#FFFFFF" d="M298.667,394.787l-21.394-21.393l-21.213,21.211l42.607,42.607l63.938-63.939l-21.212-21.213
	L298.667,394.787z"/>
</svg>
