<?xml version="1.0" encoding="utf-8"?>
<!-- Generator: Adobe Illustrator 16.0.0, SVG Export Plug-In . SVG Version: 6.00 Build 0)  -->
<!DOCTYPE svg PUBLIC "-//W3C//DTD SVG 1.1//EN" "http://www.w3.org/Graphics/SVG/1.1/DTD/svg11.dtd">
<svg version="1.1" id="Capa_1" xmlns="http://www.w3.org/2000/svg" xmlns:xlink="http://www.w3.org/1999/xlink" x="0px" y="0px"
	 width="400px" height="400px" viewBox="0 0 400 400" enable-background="new 0 0 400 400" xml:space="preserve">
<g>
	<g>
		<path fill="#FFFFFF" d="M389.681,125.88c-13.707-13.708-36.011-13.707-49.723,0.003c-4.218,4.221-31.144,31.168-35.257,35.286
			V68.302c0-9.391-3.656-18.219-10.297-24.859L261.26,10.297C254.619,3.656,245.791,0,236.4,0H35.17
			C15.785,0,0.014,15.771,0.014,35.156v329.688C0.014,384.229,15.785,400,35.17,400h234.375c19.386,0,35.156-15.771,35.156-35.156
			V260.649l84.979-85.05C403.42,161.86,403.423,139.621,389.681,125.88z M234.39,23.438c2.214,0,6.48-0.384,10.297,3.432
			l33.146,33.146c3.719,3.72,3.433,7.795,3.433,10.297H234.39V23.438z M281.264,364.844c0,6.462-5.256,11.719-11.719,11.719H35.17
			c-6.462,0-11.719-5.257-11.719-11.719V35.156c0-6.462,5.257-11.719,11.719-11.719h175.781v58.594
			c0,6.472,5.247,11.719,11.719,11.719h58.594v90.877c0,0-34.573,34.603-34.574,34.604l-16.565,16.565
			c-1.286,1.286-2.256,2.854-2.831,4.58l-16.573,49.719c-1.404,4.211-0.308,8.854,2.831,11.992
			c3.143,3.144,7.787,4.234,11.992,2.832l49.719-16.573c1.726-0.575,3.295-1.544,4.58-2.831l1.422-1.422V364.844L281.264,364.844z
			 M254.982,244.084l16.573,16.572l-6.331,6.33l-24.858,8.286l8.286-24.859L254.982,244.084z M288.125,244.08l-16.572-16.573
			c8.824-8.832,48.02-48.06,56.332-56.379l16.572,16.573L288.125,244.08z M373.104,159.03l-12.08,12.09l-16.572-16.572
			l12.084-12.095c4.572-4.569,12.005-4.569,16.573,0C377.677,147.023,377.701,154.432,373.104,159.03z"/>
	</g>
</g>
<g>
	<g>
		<path fill="#FFFFFF" d="M222.67,117.188H58.608c-6.472,0-11.719,5.247-11.719,11.719s5.247,11.719,11.719,11.719H222.67
			c6.473,0,11.719-5.247,11.719-11.719S229.143,117.188,222.67,117.188z"/>
	</g>
</g>
<g>
	<g>
		<path fill="#FFFFFF" d="M175.795,164.063H58.608c-6.472,0-11.719,5.247-11.719,11.719S52.136,187.5,58.608,187.5h117.188
			c6.472,0,11.719-5.247,11.719-11.719S182.267,164.063,175.795,164.063z"/>
	</g>
</g>
<g>
	<g>
		<path fill="#FFFFFF" d="M175.795,210.938H58.608c-6.472,0-11.719,5.247-11.719,11.719s5.247,11.719,11.719,11.719h117.188
			c6.472,0,11.719-5.247,11.719-11.719S182.267,210.938,175.795,210.938z"/>
	</g>
</g>
<g>
	<g>
		<path fill="#FFFFFF" d="M175.795,257.813H58.608c-6.472,0-11.719,5.247-11.719,11.719s5.247,11.719,11.719,11.719h117.188
			c6.472,0,11.719-5.247,11.719-11.719S182.267,257.813,175.795,257.813z"/>
	</g>
</g>
<g>
	<g>
		<path fill="#FFFFFF" d="M222.67,329.688h-70.312c-6.472,0-11.719,5.247-11.719,11.719s5.247,11.719,11.719,11.719h70.312
			c6.473,0,11.719-5.247,11.719-11.719S229.143,329.688,222.67,329.688z"/>
	</g>
</g>
</svg>
