<?xml version="1.0" encoding="utf-8"?>
<!-- Generator: Adobe Illustrator 16.0.0, SVG Export Plug-In . SVG Version: 6.00 Build 0)  -->
<!DOCTYPE svg PUBLIC "-//W3C//DTD SVG 1.1//EN" "http://www.w3.org/Graphics/SVG/1.1/DTD/svg11.dtd">
<svg version="1.1" id="Capa_1" xmlns="http://www.w3.org/2000/svg" xmlns:xlink="http://www.w3.org/1999/xlink" x="0px" y="0px"
	 width="400px" height="400px" viewBox="0 0 400 400" enable-background="new 0 0 400 400" xml:space="preserve">
<g>
	<path fill="#FFFFFF" d="M367.318,11.761H32.682C14.66,11.761,0,26.428,0,44.443v227.104c0,18.016,14.66,32.684,32.682,32.684
		h112.185v43.815h-17.702c-11.101,0-20.097,9.001-20.097,20.097c0,11.094,8.996,20.096,20.097,20.096h145.698
		c11.101,0,20.096-9.001,20.096-20.096s-8.995-20.097-20.096-20.097H255.16V304.23h112.158c18.021,0,32.682-14.668,32.682-32.684
		V44.443C400,26.428,385.34,11.761,367.318,11.761z M319.583,284.134c-5.037,0-9.105-4.069-9.105-9.093
		c0-5.037,4.069-9.106,9.105-9.106c5.024,0,9.093,4.069,9.093,9.106C328.676,280.064,324.607,284.134,319.583,284.134z
		 M359.775,286.318c-6.241,0-11.291-5.051-11.291-11.277c0-6.242,5.05-11.293,11.291-11.293c6.228,0,11.278,5.051,11.278,11.293
		C371.054,281.268,366.003,286.318,359.775,286.318z M373.205,252.354H26.795V44.443c0-3.244,2.643-5.887,5.887-5.887h334.636
		c3.245,0,5.886,2.643,5.886,5.887L373.205,252.354L373.205,252.354z"/>
	<path fill="#FFFFFF" d="M214.936,148.706l14.731-8.923c1.249-0.759,1.956-2.171,1.798-3.624c-0.15-1.466-1.131-2.696-2.512-3.181
		l-67.635-23.55c-1.366-0.47-2.891-0.129-3.912,0.903c-1.026,1.021-1.374,2.539-0.903,3.912l23.544,67.629
		c0.477,1.387,1.713,2.368,3.172,2.524c1.452,0.145,2.864-0.55,3.624-1.805l8.916-14.72l27.672,27.673
		c0.707,0.706,1.668,1.098,2.669,1.098s1.962-0.393,2.669-1.098l13.828-13.842c1.473-1.479,1.473-3.86,0-5.339L214.936,148.706z"/>
</g>
</svg>
