<?xml version="1.0" encoding="utf-8"?>
<!-- Generator: Adobe Illustrator 16.0.0, SVG Export Plug-In . SVG Version: 6.00 Build 0)  -->
<!DOCTYPE svg PUBLIC "-//W3C//DTD SVG 1.1//EN" "http://www.w3.org/Graphics/SVG/1.1/DTD/svg11.dtd">
<svg version="1.1" id="Capa_1" xmlns="http://www.w3.org/2000/svg" xmlns:xlink="http://www.w3.org/1999/xlink" x="0px" y="0px"
	 width="400px" height="400px" viewBox="0 0 400 400" enable-background="new 0 0 400 400" xml:space="preserve">
<path fill="#FFFFFF" d="M356.363,0c-24.065,0-43.636,19.571-43.636,43.636c0,7.527,1.912,14.611,5.279,20.8l-71.483,71.483
	c-9.854-7.673-22.189-12.284-35.614-12.284c-13.426,0-25.76,4.611-35.622,12.276l-55.774-55.774
	c2.56-4.327,4.124-9.302,4.124-14.684c0-16.043-13.047-29.091-29.091-29.091S65.455,49.411,65.455,65.455
	s13.047,29.091,29.091,29.091c5.382,0,10.356-1.563,14.684-4.124l55.774,55.774c-7.665,9.862-12.276,22.196-12.276,35.622
	c0,13.425,4.611,25.76,12.276,35.614l-92.102,92.109c-7.753-7.032-18-11.36-29.266-11.36C19.571,298.182,0,317.753,0,341.818
	s19.571,43.637,43.636,43.637s43.637-19.571,43.637-43.637c0-7.527-1.913-14.611-5.28-20.801l93.302-93.301
	c8.044,6.254,17.746,10.443,28.349,11.773v73.892c-20.604,3.477-36.364,21.396-36.364,42.981c0,24.066,19.571,43.637,43.636,43.637
	c24.066,0,43.637-19.57,43.637-43.637c0-21.578-15.76-39.498-36.363-42.981V239.49c10.604-1.33,20.305-5.52,28.349-11.773
	l55.774,55.773c-2.566,4.336-4.131,9.31-4.131,14.691c0,16.044,13.048,29.092,29.091,29.092c16.044,0,29.091-13.048,29.091-29.092
	c0-16.043-13.047-29.091-29.091-29.091c-5.382,0-10.356,1.563-14.684,4.124l-55.774-55.775c7.666-9.861,12.276-22.196,12.276-35.621
	c0-13.426-4.61-25.76-12.276-35.615l70.291-70.291c7.745,7.033,17.993,11.36,29.258,11.36c24.065,0,43.637-19.571,43.637-43.637
	S380.429,0,356.363,0z M80,65.455c0-8.022,6.523-14.545,14.545-14.545s14.545,6.523,14.545,14.545S102.567,80,94.545,80
	S80,73.477,80,65.455z M43.636,370.909c-16.043,0-29.091-13.048-29.091-29.091c0-16.044,13.047-29.091,29.091-29.091
	c16.044,0,29.091,13.047,29.091,29.091C72.727,357.861,59.68,370.909,43.636,370.909z M240,356.363
	c0,16.044-13.047,29.092-29.091,29.092s-29.091-13.048-29.091-29.092c0-16.043,13.047-29.09,29.091-29.09S240,340.32,240,356.363z
	 M210.909,225.455c-24.065,0-43.636-19.571-43.636-43.637s19.571-43.637,43.636-43.637s43.636,19.571,43.636,43.637
	S234.975,225.455,210.909,225.455z M341.818,298.182c0,8.021-6.523,14.546-14.546,14.546c-8.021,0-14.545-6.524-14.545-14.546
	s6.523-14.545,14.545-14.545C335.295,283.637,341.818,290.16,341.818,298.182z M356.363,72.728
	c-16.043,0-29.091-13.047-29.091-29.091c0-16.043,13.048-29.091,29.091-29.091c16.044,0,29.091,13.047,29.091,29.091
	C385.454,59.68,372.407,72.728,356.363,72.728z"/>
</svg>
