<?xml version="1.0" encoding="utf-8"?>
<!-- Generator: Adobe Illustrator 16.0.0, SVG Export Plug-In . SVG Version: 6.00 Build 0)  -->
<!DOCTYPE svg PUBLIC "-//W3C//DTD SVG 1.1//EN" "http://www.w3.org/Graphics/SVG/1.1/DTD/svg11.dtd">
<svg version="1.1" id="Capa_1" xmlns="http://www.w3.org/2000/svg" xmlns:xlink="http://www.w3.org/1999/xlink" x="0px" y="0px"
	 width="512px" height="512px" viewBox="0 0 512 512" enable-background="new 0 0 512 512" xml:space="preserve">
<g>
	<g>
		<path fill="#FFFFFF" d="M511.13,260.244l-0.436,0.218L437.24,77.644h33.517c6.01,0,10.882-4.873,10.882-10.882
			c0-6.009-4.872-10.882-10.882-10.882h-204.8V24.43c0-6.01-4.873-10.882-10.882-10.882c-6.01,0-10.882,4.872-10.882,10.882v31.34
			H39.502c-6.01,0-10.882,4.873-10.882,10.882c0,6.01,4.873,10.882,10.882,10.882h34.931L0.871,260.244
			c-0.544,1.274-0.839,2.642-0.871,4.026c0,49.974,40.511,90.483,90.484,90.483c49.973,0,90.484-40.51,90.484-90.483
			c-0.031-1.385-0.326-2.752-0.871-4.026L106.644,77.426h137.549v336.473c-51.907,3.918-92.497,35.476-92.497,73.672
			c0,6.009,4.872,10.882,10.882,10.882h184.995c6.01,0,10.882-4.873,10.882-10.882c0-38.196-40.59-69.754-92.497-73.672V77.426
			h138.964l-73.019,182.818c-0.544,1.274-0.84,2.642-0.871,4.026c0,49.974,40.512,90.483,90.484,90.483
			c49.974,0,90.484-40.51,90.484-90.483C511.969,262.886,511.674,261.519,511.13,260.244z M90.43,333.154
			c-33.704-0.047-62.408-24.512-67.795-57.784H157.79C152.43,308.48,123.97,332.895,90.43,333.154z M153.872,253.606H27.205
			L90.647,95.708L153.872,253.606z M334.731,476.688H175.31c8.053-23.396,41.243-41.46,79.657-41.46
			S326.679,453.291,334.731,476.688z M421.026,95.816l63.225,157.79H357.584L421.026,95.816z M421.026,333.154v0.108
			c-33.575-0.269-62.048-24.739-67.36-57.893h135.155C483.435,308.643,454.73,333.107,421.026,333.154z"/>
	</g>
</g>
</svg>
