<?xml version="1.0" encoding="utf-8"?>
<!-- Generator: Adobe Illustrator 16.0.0, SVG Export Plug-In . SVG Version: 6.00 Build 0)  -->
<!DOCTYPE svg PUBLIC "-//W3C//DTD SVG 1.1//EN" "http://www.w3.org/Graphics/SVG/1.1/DTD/svg11.dtd">
<svg version="1.1" id="Layer_1" xmlns="http://www.w3.org/2000/svg" xmlns:xlink="http://www.w3.org/1999/xlink" x="0px" y="0px"
	 width="84.929px" height="91.996px" viewBox="2.936 2.672 84.929 91.996" enable-background="new 2.936 2.672 84.929 91.996"
	 xml:space="preserve">
<g>
	<path fill="#F58220" d="M27,22.6c21-20.8,46.5-26.2,56.7-12c10.1,14.2,1.2,43-19.9,63.8c-21,21-46.4,26.399-56.7,12.1
		C-3,72.2,5.9,43.5,27,22.6z"/>
	<path fill="#B02A30" d="M40.9,11.5c-2.3,1.7-4.6,3.7-6.9,5.9C15.5,35.7,7.9,60.6,16.9,73.1c9.4,12.5,32.1,8,50.8-10.5
		c10.1-9.8,16.9-21.399,19.8-32c0.9-7.9-0.3-14.8-3.8-20.1C75.6-0.5,58.3,0.4,40.9,11.5z"/>
	<path fill="#FFFFFF" d="M66.3,10.8c2.5,2.5,1,7.9-3.2,12.1c-4.2,4.1-9.7,5.6-12.1,3.2c-2.6-2.5-1.1-7.9,3.1-12.2
		C58.4,9.8,63.9,8.5,66.3,10.8L66.3,10.8z M51.4,84.8c-9.8,7.4-20.1,11.101-30,9.5c4.2,0.2,7.6-4.399,10.4-10.6
		c2.8-6.4,4.4-12.3,5.8-17.8c1.9-8.7,2.1-15,1.1-16.4c-1.7-2.2-5.5-1.6-9.8,0.9C26.7,51.6,24,50.8,27.3,46.8
		c3.3-4,16.4-13.6,21.2-15.1c5.2-1.5,11.1,0.5,9.1,6.3C56,42,37.9,89.8,51.4,84.8z"/>
</g>
</svg>
