<?xml version="1.0" encoding="utf-8"?>
<!-- Generator: Adobe Illustrator 16.0.0, SVG Export Plug-In . SVG Version: 6.00 Build 0)  -->
<!DOCTYPE svg PUBLIC "-//W3C//DTD SVG 1.1//EN" "http://www.w3.org/Graphics/SVG/1.1/DTD/svg11.dtd">
<svg version="1.1" id="Capa_1" xmlns="http://www.w3.org/2000/svg" xmlns:xlink="http://www.w3.org/1999/xlink" x="0px" y="0px"
	 width="435.074px" height="435.074px" viewBox="0 0 435.074 435.074" enable-background="new 0 0 435.074 435.074"
	 xml:space="preserve">
<g>
	<g>
		<g>
			<path fill="#FFFFFF" d="M267.864,201.2c-8.759,1.429-17.481,5.225-25.333,10.911l-82.587-82.586
				c-4.363-4.362-11.437-4.361-15.799,0.001c-4.29,4.291-4.353,11.198-0.2,15.574l-21.341,21.339
				c-4.362,4.363-4.362,11.437,0.001,15.8c4.362,4.363,11.436,4.361,15.798-0.001l21.328-21.326l10.533,10.533l-21.329,21.327
				c-4.362,4.364-4.362,11.437,0.002,15.801c4.362,4.361,11.438,4.361,15.799,0l21.328-21.328l40.668,40.668
				c-5.686,7.851-9.483,16.571-10.915,25.333c-2.151,13.165,1.154,24.908,9.308,33.059c8.153,8.154,19.896,11.461,33.06,9.311
				c12.092-1.975,24.114-8.434,33.864-18.184c9.752-9.75,16.208-21.773,18.184-33.861c2.15-13.166-1.152-24.908-9.31-33.062
				C292.771,202.354,281.029,199.049,267.864,201.2z M278.034,263.414c-12.532,12.531-29.993,16.25-38.13,8.111
				c-8.133-8.133-4.418-25.598,8.113-38.127c12.531-12.532,29.993-16.251,38.131-8.115
				C294.284,233.422,290.566,250.883,278.034,263.414z"/>
			<path fill="#FFFFFF" d="M418.074,200.537h-17.791c-3.923-42.427-22.711-82.393-53.032-112.713
				c-30.321-30.322-70.287-49.11-112.714-53.033V17c0-9.374-7.626-17-17-17s-17,7.626-17,17v17.792
				c-42.427,3.922-82.393,22.711-112.714,53.032c-30.321,30.32-49.109,70.286-53.032,112.713H17c-9.374,0-17,7.626-17,17
				s7.626,17,17,17h17.791c3.923,42.427,22.711,82.393,53.032,112.713c30.321,30.32,70.287,49.11,112.714,53.032v17.792
				c0,9.374,7.626,17,17,17s17-7.626,17-17v-17.792c42.427-3.922,82.393-22.712,112.714-53.032s49.109-70.286,53.032-112.713h17.791
				c9.374,0,17-7.626,17-17S427.448,200.537,418.074,200.537z M350.074,234.537h16.034c-7.831,68.908-62.663,123.74-131.571,131.57
				v-16.033c0-9.374-7.626-17-17-17s-17,7.626-17,17v16.033c-68.908-7.83-123.74-62.662-131.571-131.57H85c9.374,0,17-7.626,17-17
				s-7.626-17-17-17H68.966c7.831-68.908,62.663-123.74,131.571-131.571V85c0,9.374,7.626,17,17,17s17-7.626,17-17V68.966
				c68.908,7.831,123.74,62.663,131.571,131.571h-16.034c-9.374,0-17,7.626-17,17S340.7,234.537,350.074,234.537z"/>
		</g>
	</g>
</g>
</svg>
