<?xml version="1.0" encoding="utf-8"?>
<!-- Generator: Adobe Illustrator 16.0.0, SVG Export Plug-In . SVG Version: 6.00 Build 0)  -->
<!DOCTYPE svg PUBLIC "-//W3C//DTD SVG 1.1//EN" "http://www.w3.org/Graphics/SVG/1.1/DTD/svg11.dtd">
<svg version="1.1" id="Capa_1" xmlns="http://www.w3.org/2000/svg" xmlns:xlink="http://www.w3.org/1999/xlink" x="0px" y="0px"
	 width="400px" height="400px" viewBox="0 0 400 400" enable-background="new 0 0 400 400" xml:space="preserve">
<g>
	<g>
		<g>
			<path fill="#FFFFFF" d="M275.358,171.875c0-8.63-6.995-15.625-15.625-15.625H98.796c-8.629,0-15.625,6.995-15.625,15.625
				S90.167,187.5,98.796,187.5h160.938C268.363,187.5,275.358,180.505,275.358,171.875z"/>
			<path fill="#FFFFFF" d="M98.796,218.75c-8.629,0-15.625,6.995-15.625,15.625S90.167,250,98.796,250h97.743
				c8.63,0,15.625-6.995,15.625-15.625s-6.995-15.625-15.625-15.625H98.796z"/>
			<path fill="#FFFFFF" d="M135.515,368.75H83.258c-17.231,0-31.25-14.019-31.25-31.25v-275c0-17.231,14.019-31.25,31.25-31.25
				h192.101c17.231,0,31.25,14.019,31.25,31.25v96.094c0,8.63,6.995,15.625,15.625,15.625s15.625-6.995,15.625-15.625V62.5
				c0-34.462-28.037-62.5-62.5-62.5H83.258c-34.462,0-62.5,28.038-62.5,62.5v275c0,34.463,28.038,62.5,62.5,62.5h52.257
				c8.63,0,15.625-6.995,15.625-15.625S144.145,368.75,135.515,368.75z"/>
			<path fill="#FFFFFF" d="M365.534,226.229c-18.276-18.277-48.014-18.277-66.278-0.013l-85.784,85.594
				c-1.821,1.817-3.165,4.057-3.914,6.52l-18.682,61.504c-1.656,5.453-0.213,11.374,3.766,15.453
				c2.981,3.056,7.032,4.714,11.185,4.714c1.39,0,2.793-0.186,4.171-0.568l63.066-17.469c2.595-0.719,4.961-2.097,6.867-4
				l85.604-85.442C383.812,274.244,383.812,244.506,365.534,226.229z M260.763,352.943l-31.729,8.789l9.285-30.569l57.882-57.754
				l22.102,22.102L260.763,352.943z M343.449,270.414l-3.027,3.021l-22.098-22.098l3.018-3.012c6.092-6.092,16.004-6.092,22.097,0
				C349.53,254.419,349.53,264.331,343.449,270.414z"/>
			<path fill="#FFFFFF" d="M259.733,93.75H98.796c-8.629,0-15.625,6.995-15.625,15.625S90.167,125,98.796,125h160.938
				c8.63,0,15.625-6.995,15.625-15.625S268.363,93.75,259.733,93.75z"/>
		</g>
	</g>
</g>
</svg>
