<?xml version="1.0" encoding="utf-8"?>
<!-- Generator: Adobe Illustrator 16.0.0, SVG Export Plug-In . SVG Version: 6.00 Build 0)  -->
<!DOCTYPE svg PUBLIC "-//W3C//DTD SVG 1.1//EN" "http://www.w3.org/Graphics/SVG/1.1/DTD/svg11.dtd">
<svg version="1.1" id="Layer_1" xmlns="http://www.w3.org/2000/svg" xmlns:xlink="http://www.w3.org/1999/xlink" x="0px" y="0px"
	 width="400px" height="400px" viewBox="0 0 400 400" enable-background="new 0 0 400 400" xml:space="preserve">
<path fill="#FFFFFF" d="M388.354,40.097c-0.024,0-0.049-0.003-0.073-0.003h-106.25V28.375c0-19.385-15.771-35.156-35.156-35.156
	h-93.75c-19.385,0-35.156,15.771-35.156,35.156v11.719H11.719C5.194,40.094,0,45.44,0,51.813v257.813
	c0,19.385,15.771,35.156,35.156,35.156h329.688c19.385,0,35.156-15.771,35.156-35.156V52.06c0-0.015,0-0.03,0-0.046
	C399.552,44.317,394.818,40.14,388.354,40.097z M141.406,28.375c0-6.46,5.258-11.719,11.719-11.719h93.75
	c6.461,0,11.719,5.258,11.719,11.719v11.719H141.406V28.375z M372.021,63.531l-36.393,109.174
	c-1.596,4.794-6.063,8.014-11.114,8.014h-65.921V169c0-6.473-5.246-11.719-11.719-11.719h-93.75
	c-6.473,0-11.719,5.246-11.719,11.719v11.719H75.485c-5.051,0-9.519-3.22-11.115-8.014L27.979,63.531H372.021z M235.156,180.719
	v23.438h-70.313v-23.438H235.156z M376.563,309.625c0,6.461-5.258,11.719-11.719,11.719H35.156c-6.46,0-11.719-5.258-11.719-11.719
	V124.026l18.698,56.091c4.791,14.38,18.194,24.039,33.35,24.039h65.921v11.719c0,6.473,5.246,11.719,11.719,11.719h93.75
	c6.473,0,11.719-5.246,11.719-11.719v-11.719h65.921c15.155,0,28.559-9.659,33.35-24.039l18.698-56.091V309.625z"/>
</svg>
