<?xml version="1.0" encoding="utf-8"?>
<!-- Generator: Adobe Illustrator 16.0.0, SVG Export Plug-In . SVG Version: 6.00 Build 0)  -->
<!DOCTYPE svg PUBLIC "-//W3C//DTD SVG 1.1//EN" "http://www.w3.org/Graphics/SVG/1.1/DTD/svg11.dtd">
<svg version="1.1" id="Capa_1" xmlns="http://www.w3.org/2000/svg" xmlns:xlink="http://www.w3.org/1999/xlink" x="0px" y="0px"
	 width="400px" height="400px" viewBox="0 0 400 400" enable-background="new 0 0 400 400" xml:space="preserve">
<g>
	<path fill="#FFFFFF" d="M256.735,100.777V69.885c0-14.94-12.112-27.052-27.052-27.052H27.052C12.112,42.833,0,54.945,0,69.885
		v103.828c0,14.941,12.112,27.053,27.052,27.053h19.909v-52.68c0-26.085,21.224-47.309,47.309-47.309H256.735z"/>
	<path fill="#FFFFFF" d="M323.954,178.979v-30.892c0-14.941-12.112-27.052-27.052-27.052H94.272
		c-14.94,0-27.052,12.112-27.052,27.052v103.826c0,14.94,12.112,27.052,27.052,27.052h28.736v-52.678
		c0-26.086,21.224-47.309,47.309-47.309H323.954z"/>
	<path fill="#FFFFFF" d="M372.948,199.235H170.316c-14.94,0-27.052,12.113-27.052,27.052v103.828
		c0,14.939,12.112,27.051,27.052,27.051h202.632c14.941,0,27.052-12.111,27.052-27.051V226.287
		C400,211.346,387.888,199.235,372.948,199.235z"/>
</g>
</svg>
