<?xml version="1.0" encoding="utf-8"?>
<!-- Generator: Adobe Illustrator 16.0.0, SVG Export Plug-In . SVG Version: 6.00 Build 0)  -->
<!DOCTYPE svg PUBLIC "-//W3C//DTD SVG 1.1//EN" "http://www.w3.org/Graphics/SVG/1.1/DTD/svg11.dtd">
<svg version="1.1" id="Capa_1" xmlns="http://www.w3.org/2000/svg" xmlns:xlink="http://www.w3.org/1999/xlink" x="0px" y="0px"
	 width="400px" height="400px" viewBox="0 0 400 400" enable-background="new 0 0 400 400" xml:space="preserve">
<g>
	<g>
		<path fill="#FFFFFF" d="M281.723,197.311c-0.938-3.959-3.846-7.142-7.701-8.423l-57.496-19.168l40.833-81.665
			c2.563-5.138,1.03-11.387-3.628-14.751c-4.681-3.353-11.089-2.849-15.141,1.224L121.402,191.715
			c-2.873,2.873-4.052,7.026-3.124,10.975c0.938,3.96,3.845,7.142,7.701,8.423l57.496,19.169l-40.833,81.665
			c-2.563,5.138-1.03,11.387,3.628,14.751c4.665,3.344,11.061,2.854,15.141-1.224l117.188-117.188
			C281.471,205.413,282.65,201.26,281.723,197.311z"/>
	</g>
</g>
<g>
	<g>
		<path fill="#FFFFFF" d="M200,0C140.523,0,84.345,27.661,46.875,72.288V59.375c0-6.478-5.241-11.719-11.719-11.719
			s-11.719,5.241-11.719,11.719v49.782c0,11.184,14.445,12.784,11.719,11.719c0.241,0,0.48-0.012,0.721-0.023l46.875-2.907
			c6.465-0.401,11.375-5.963,10.975-12.417c-0.401-6.455-6.042-11.318-12.417-10.975L57.565,96.03
			C90.456,51.29,143.672,23.438,200,23.438c96.932,0,176.563,79.631,176.563,176.563c0,6.478,5.241,11.719,11.719,11.719
			S400,206.478,400,200C400,90.148,309.852,0,200,0z"/>
	</g>
</g>
<g>
	<g>
		<path fill="#FFFFFF" d="M364.123,279.146l-46.875,2.907c-6.466,0.401-11.376,5.963-10.976,12.417
			c0.401,6.455,6.169,11.376,12.417,10.976l23.746-1.477c-32.891,44.74-86.107,72.593-142.436,72.593
			c-96.931,0-176.563-79.631-176.563-176.563c0-6.478-5.241-11.719-11.719-11.719S0,193.522,0,200c0,109.852,90.148,200,200,200
			c59.477,0,115.655-27.661,153.125-72.288v12.913c0,6.478,5.241,11.719,11.719,11.719s11.719-5.241,11.719-11.719v-49.782
			C376.563,284.405,370.39,278.794,364.123,279.146z"/>
	</g>
</g>
</svg>
