<?xml version="1.0" encoding="utf-8"?>
<!-- Generator: Adobe Illustrator 16.0.0, SVG Export Plug-In . SVG Version: 6.00 Build 0)  -->
<!DOCTYPE svg PUBLIC "-//W3C//DTD SVG 1.1//EN" "http://www.w3.org/Graphics/SVG/1.1/DTD/svg11.dtd">
<svg version="1.1" id="Capa_1" xmlns="http://www.w3.org/2000/svg" xmlns:xlink="http://www.w3.org/1999/xlink" x="0px" y="0px"
	 width="400px" height="400px" viewBox="0 0 400 400" enable-background="new 0 0 400 400" xml:space="preserve">
<g>
	<g>
		<path fill="#FFFFFF" d="M397.458,192.22c-3.573-4.888-88.717-119.692-197.46-119.692S6.108,187.332,2.538,192.215
			c-3.384,4.637-3.384,10.927,0,15.565c3.57,4.888,88.717,119.692,197.46,119.692s193.887-114.805,197.46-119.688
			C400.847,203.147,400.847,196.853,397.458,192.22z M199.998,301.1c-80.101,0-149.477-76.198-170.014-101.108
			c20.51-24.932,89.741-101.09,170.014-101.09c80.098,0,149.469,76.185,170.014,101.108C349.502,224.94,280.271,301.1,199.998,301.1
			z"/>
	</g>
</g>
<g>
	<g>
		<path fill="#FFFFFF" d="M199.998,120.879c-43.626,0-79.121,35.495-79.121,79.122c0,43.626,35.495,79.121,79.121,79.121
			c43.627,0,79.121-35.494,79.121-79.121S243.625,120.879,199.998,120.879z M199.998,252.748c-29.086,0-52.747-23.662-52.747-52.748
			s23.662-52.747,52.747-52.747c29.085,0,52.747,23.662,52.747,52.747S229.084,252.748,199.998,252.748z"/>
	</g>
</g>
</svg>
