<?xml version="1.0" encoding="utf-8"?>
<!-- Generator: Adobe Illustrator 16.0.0, SVG Export Plug-In . SVG Version: 6.00 Build 0)  -->
<!DOCTYPE svg PUBLIC "-//W3C//DTD SVG 1.1//EN" "http://www.w3.org/Graphics/SVG/1.1/DTD/svg11.dtd">
<svg version="1.1" id="Capa_1" xmlns="http://www.w3.org/2000/svg" xmlns:xlink="http://www.w3.org/1999/xlink" x="0px" y="0px"
	 width="400px" height="400px" viewBox="0 0 400 400" enable-background="new 0 0 400 400" xml:space="preserve">
<g>
	<g>
		<path fill="#FFFFFF" d="M96.976,168.447c11.107-1.492,22.214,2.321,30.089,10.195l19.894,19.894l18.816-18.733l-27.188-27.105
			c-4.227-4.228-4.227-11.107,0-15.335c4.228-4.227,11.107-4.227,15.335,0l27.188,27.188l18.816-18.733l-19.977-19.977
			c-7.875-7.875-11.688-19.065-10.196-30.089c3.316-25.199-4.725-51.558-24.038-70.954C125.987,5.071,98.965-2.886,73.352,0.927
			c-4.062,0.58-5.719,5.637-2.818,8.538l25.613,25.613c12.185,12.185,12.185,31.913,0,44.015L80.397,94.841
			c-12.185,12.185-31.913,12.185-44.015,0L10.687,69.228c-2.901-2.901-7.875-1.244-8.538,2.818
			c-3.813,25.613,4.145,52.635,23.872,72.363C45.418,163.723,71.777,171.763,96.976,168.447z"/>
		<path fill="#FFFFFF" d="M256.289,202.184l-18.815,18.732l111.735,111.736c4.228,4.227,4.228,11.107,0,15.334
			c-4.228,4.228-11.107,4.228-15.334,0L222.139,236.251l-18.815,18.733l115.134,115.134c14.589,14.589,38.212,14.506,52.801-0.083
			c14.589-14.588,14.589-38.212,0.083-52.801L256.289,202.184z"/>
		<path fill="#FFFFFF" d="M299.475,127.583h49.651l49.651-99.219L373.993,3.579l-99.302,49.568v49.651l-134.945,134.53
			l-24.287-24.203l-97.81,97.81c-20.391,20.392-20.391,53.382,0,73.772c20.391,20.391,53.381,20.391,73.772,0l97.81-97.811
			l-24.784-24.783L299.475,127.583z"/>
	</g>
</g>
</svg>
