<?xml version="1.0" encoding="utf-8"?>
<!-- Generator: Adobe Illustrator 16.0.0, SVG Export Plug-In . SVG Version: 6.00 Build 0)  -->
<!DOCTYPE svg PUBLIC "-//W3C//DTD SVG 1.1//EN" "http://www.w3.org/Graphics/SVG/1.1/DTD/svg11.dtd">
<svg version="1.1" id="Capa_1" xmlns="http://www.w3.org/2000/svg" xmlns:xlink="http://www.w3.org/1999/xlink" x="0px" y="0px"
	 width="512px" height="512px" viewBox="0 0 512 512" enable-background="new 0 0 512 512" xml:space="preserve">
<path fill="#FFFFFF" d="M512,0H0v32h32v304c0,8.844,7.156,16,16,16h192v100.92c-9.387,5.586-16,15.393-16,27.081
	c0,17.641,14.359,32,32,32c17.64,0,32-14.359,32-32c0-11.688-6.613-21.494-16.001-27.081V352h192.001c8.844,0,16-7.156,16-16V32h32
	L512,0L512,0z M448.001,320H64V32h384V320z"/>
<path fill="#FFFFFF" d="M208.328,198.296l52.282,52.938c3,3.046,7.078,4.75,11.343,4.766c4.828-0.313,8.345-1.672,11.359-4.687
	l68.688-68.688V224h32v-80c0-8.844-7.156-16-16-16h-80.001v32h41.376l-57.297,57.297l-52.281-52.938
	c-3-3.046-7.079-4.75-11.343-4.766h-0.047c-4.25,0-8.313,1.688-11.312,4.687l-96.407,96.407l22.625,22.625L208.328,198.296z"/>
</svg>
