<?xml version="1.0" encoding="utf-8"?>
<!-- Generator: Adobe Illustrator 16.0.0, SVG Export Plug-In . SVG Version: 6.00 Build 0)  -->
<!DOCTYPE svg PUBLIC "-//W3C//DTD SVG 1.1//EN" "http://www.w3.org/Graphics/SVG/1.1/DTD/svg11.dtd">
<svg version="1.1" id="Layer_1" xmlns="http://www.w3.org/2000/svg" xmlns:xlink="http://www.w3.org/1999/xlink" x="0px" y="0px"
	 width="499px" height="499px" viewBox="0 0 499 499" enable-background="new 0 0 499 499" xml:space="preserve">
<path fill="#FFFFFF" d="M479.013,85.906c0.012-46.655-37.223-84.787-83.866-85.883c-46.643-1.092-85.629,35.249-87.806,81.857
	c-2.173,46.604,33.256,86.421,79.798,89.674v72.362c-15.448-26.132-43.543-42.173-73.899-42.192c-3.308,0-5.992,2.684-5.992,5.992
	c0.063,45.079,34.925,82.458,79.892,85.649v60.402c-15.448-26.133-43.543-42.174-73.899-42.193c-3.308,0-5.992,2.684-5.992,5.992
	c0.063,45.079,34.925,82.458,79.892,85.648v89.792c0,3.312,2.684,5.991,5.991,5.991c3.313,0,5.992-2.68,5.992-5.991v-89.792
	c44.966-3.194,79.832-40.573,79.891-85.652c0-3.309-2.68-5.992-5.992-5.992c-30.356,0.023-58.451,16.064-73.898,42.197v-60.402
	c44.966-3.195,79.832-40.574,79.891-85.653c0-3.308-2.68-5.992-5.992-5.992c-30.356,0.023-58.451,16.064-73.898,42.196v-72.362
	C444.088,168.364,478.954,130.985,479.013,85.906z M319.496,213.966c35.854,3.097,64.283,31.531,67.381,67.384
	C351.023,278.253,322.59,249.823,319.496,213.966z M319.496,323.815c35.854,3.098,64.283,31.531,67.381,67.385
	C351.023,388.104,322.59,359.673,319.496,323.815z M466.768,323.815c-3.097,35.857-31.527,64.288-67.381,67.385
	C402.48,355.347,430.914,326.913,466.768,323.815z M466.768,213.966c-3.097,35.857-31.527,64.287-67.381,67.384
	C402.48,245.497,430.914,217.063,466.768,213.966z M393.13,159.805c-40.812,0-73.899-33.087-73.899-73.899
	s33.088-73.899,73.899-73.899c40.815,0,73.899,33.088,73.899,73.899C466.986,126.702,433.926,159.758,393.13,159.805z"/>
<path fill="#FFFFFF" d="M309.6,249.823c0.804-2.469-0.074-5.172-2.169-6.698l-38.946-28.356v-44.548
	c0-3.312-2.685-5.992-5.992-5.992c-3.309,0-5.992,2.68-5.992,5.992v35.822l-97.694-71.125c-2.103-1.529-4.95-1.529-7.053,0
	L3.131,243.125c-2.099,1.525-2.973,4.229-2.169,6.698c0.8,2.469,3.101,4.139,5.695,4.139H44.2v169.55
	c0,3.308,2.68,5.991,5.992,5.991h210.182c3.308,0,5.991-2.684,5.991-5.991v-169.55h37.539
	C306.498,253.962,308.796,252.288,309.6,249.823z M184.278,417.52h-57.995v-48.664h57.995V417.52z M260.374,241.978
	c-3.308,0-5.992,2.68-5.992,5.992v169.55h-58.12v-54.656c0-3.308-2.684-5.991-5.992-5.991h-69.979c-3.308,0-5.992,2.684-5.992,5.991
	v54.656H56.18V247.97c0-3.312-2.684-5.992-5.992-5.992H25.07l130.209-94.8l130.213,94.8H260.374z"/>
<path fill="#FFFFFF" d="M429.038,42.834c0-2.388-1.938-4.328-4.328-4.328h-61.161c-2.392,0-4.328,1.939-4.328,4.328
	c0,2.391,1.937,4.328,4.328,4.328h17.5c10.432,0.015,19.41,7.366,21.482,17.586h-38.982c-2.392,0-4.328,1.938-4.328,4.328
	c0,2.391,1.937,4.328,4.328,4.328h38.982c-2.072,10.221-11.051,17.572-21.482,17.584h-17.5c-1.772,0.002-3.364,1.082-4.021,2.729
	c-0.653,1.647-0.239,3.526,1.049,4.743l43.742,41.335c1.737,1.643,4.479,1.565,6.118-0.173c1.643-1.736,1.564-4.476-0.172-6.118
	l-35.835-33.86h6.619c15.203-0.021,28.087-11.196,30.26-26.242h13.401c2.391,0,4.328-1.937,4.328-4.328
	c0-2.391-1.938-4.328-4.328-4.328h-13.401c-0.962-6.694-4.119-12.879-8.977-17.584h22.378
	C427.101,47.162,429.038,45.225,429.038,42.834z"/>
</svg>
