<?xml version="1.0" encoding="utf-8"?>
<!-- Generator: Adobe Illustrator 16.0.0, SVG Export Plug-In . SVG Version: 6.00 Build 0)  -->
<!DOCTYPE svg PUBLIC "-//W3C//DTD SVG 1.1//EN" "http://www.w3.org/Graphics/SVG/1.1/DTD/svg11.dtd">
<svg version="1.1" id="Layer_1" xmlns="http://www.w3.org/2000/svg" xmlns:xlink="http://www.w3.org/1999/xlink" x="0px" y="0px"
	 width="400px" height="400px" viewBox="0 0 400 400" enable-background="new 0 0 400 400" xml:space="preserve">
<path fill="#7F7F7F" d="M378.204,206.122l3.751-6.122l-3.751-6.125c-0.628-1.022-15.716-25.375-45.028-49.78
	c-38.986-32.455-84.915-49.612-132.825-49.612c-47.897,0-93.939,17.148-133.148,49.588c-29.48,24.393-44.739,48.728-45.374,49.753
	L17.999,200l3.83,6.177c0.635,1.025,15.894,25.36,45.374,49.753c39.209,32.439,85.251,49.588,133.148,49.588
	c47.91,0,93.838-17.157,132.825-49.612C362.488,231.5,377.576,207.147,378.204,206.122z M317.557,238.406
	c-35.07,28.979-74.506,43.671-117.206,43.671c-42.715,0-82.279-14.7-117.587-43.698C64.502,223.383,52.121,208.197,46.057,200
	c6.067-8.203,18.448-23.386,36.707-38.382c35.309-28.995,74.869-43.698,117.587-43.698c42.7,0,82.131,14.694,117.206,43.671
	c18.18,15.021,30.453,30.228,36.436,38.409C348.004,208.185,335.733,223.392,317.557,238.406z"/>
<path fill="#7F7F7F" d="M200,129.584c-38.828,0-70.416,31.588-70.416,70.416c0,38.828,31.588,70.416,70.416,70.416
	c38.828,0,70.416-31.588,70.416-70.416C270.416,161.172,238.828,129.584,200,129.584z M200,246.979
	c-25.903,0-46.979-21.075-46.979-46.979s21.075-46.979,46.979-46.979s46.979,21.075,46.979,46.979S225.903,246.979,200,246.979z"/>
<path fill="#7F7F7F" d="M23.438,23.438h48.926V0H0v71.484h23.438V23.438z"/>
<path fill="#7F7F7F" d="M327.637,0v23.438h48.926v48.047H400V0H327.637z"/>
<path fill="#7F7F7F" d="M23.438,328.516H0V400h72.363v-23.438H23.438V328.516z"/>
<path fill="#7F7F7F" d="M376.563,376.563h-48.926V400H400v-71.484h-23.438V376.563z"/>
</svg>
